<svg width="192" height="192" viewBox="0 0 192 192" fill="none" xmlns="http://www.w3.org/2000/svg">
<rect width="192" height="192" fill="#EDEDED"/>
<g clip-path="url(#clip0_1_36)">
<g opacity="0.8">
<path d="M52.9 127.8C76.4273 127.8 95.5 108.727 95.5 85.2C95.5 61.6727 76.4273 42.6 52.9 42.6C29.3727 42.6 10.3 61.6727 10.3 85.2C10.3 108.727 29.3727 127.8 52.9 127.8Z" fill="#FF6B6B"/>
<path d="M95.5 127.8C119.027 127.8 138.1 108.727 138.1 85.2C138.1 61.6727 119.027 42.6 95.5 42.6C71.9727 42.6 52.9 61.6727 52.9 85.2C52.9 108.727 71.9727 127.8 95.5 127.8Z" fill="#4ECDC4"/>
<path d="M138.1 127.8C161.627 127.8 180.7 108.727 180.7 85.2C180.7 61.6727 161.627 42.6 138.1 42.6C114.573 42.6 95.5 61.6727 95.5 85.2C95.5 108.727 114.573 127.8 138.1 127.8Z" fill="#45B7D1"/>
</g>
<path d="M77.0541 147.963H74.8766C74.8368 147.681 74.7556 147.431 74.633 147.212C74.5103 146.99 74.3529 146.801 74.1607 146.645C73.9684 146.49 73.7464 146.37 73.4945 146.287C73.2459 146.205 72.9758 146.163 72.6841 146.163C72.1571 146.163 71.6981 146.294 71.307 146.556C70.9159 146.814 70.6126 147.192 70.3972 147.689C70.1817 148.183 70.074 148.783 70.074 149.489C70.074 150.215 70.1817 150.825 70.3972 151.319C70.6159 151.812 70.9209 152.185 71.312 152.437C71.7031 152.689 72.1555 152.815 72.6692 152.815C72.9575 152.815 73.2244 152.777 73.4696 152.701C73.7182 152.625 73.9386 152.513 74.1308 152.368C74.3231 152.219 74.4822 152.038 74.6081 151.826C74.7374 151.614 74.8269 151.372 74.8766 151.1L77.0541 151.11C76.9978 151.577 76.8569 152.028 76.6316 152.462C76.4095 152.893 76.1095 153.279 75.7317 153.62C75.3572 153.959 74.9097 154.227 74.3894 154.426C73.8723 154.621 73.2873 154.719 72.6344 154.719C71.7263 154.719 70.9142 154.514 70.1983 154.103C69.4857 153.692 68.9223 153.097 68.508 152.318C68.097 151.539 67.8915 150.596 67.8915 149.489C67.8915 148.379 68.1003 147.434 68.5179 146.655C68.9355 145.876 69.5023 145.283 70.2182 144.875C70.9341 144.464 71.7395 144.259 72.6344 144.259C73.2244 144.259 73.7712 144.342 74.275 144.508C74.7821 144.673 75.2312 144.915 75.6223 145.233C76.0134 145.548 76.3316 145.934 76.5769 146.392C76.8254 146.849 76.9845 147.373 77.0541 147.963ZM82.0083 154.729C81.2361 154.729 80.5682 154.565 80.0048 154.237C79.4446 153.906 79.0121 153.445 78.7072 152.855C78.4023 152.262 78.2498 151.574 78.2498 150.792C78.2498 150.003 78.4023 149.313 78.7072 148.723C79.0121 148.13 79.4446 147.67 80.0048 147.341C80.5682 147.01 81.2361 146.844 82.0083 146.844C82.7806 146.844 83.4468 147.01 84.0069 147.341C84.5704 147.67 85.0045 148.13 85.3095 148.723C85.6144 149.313 85.7669 150.003 85.7669 150.792C85.7669 151.574 85.6144 152.262 85.3095 152.855C85.0045 153.445 84.5704 153.906 84.0069 154.237C83.4468 154.565 82.7806 154.729 82.0083 154.729ZM82.0183 153.089C82.3696 153.089 82.6629 152.989 82.8982 152.79C83.1336 152.588 83.3109 152.313 83.4302 151.965C83.5528 151.617 83.6142 151.221 83.6142 150.777C83.6142 150.333 83.5528 149.937 83.4302 149.589C83.3109 149.241 83.1336 148.965 82.8982 148.763C82.6629 148.561 82.3696 148.46 82.0183 148.46C81.6636 148.46 81.3653 148.561 81.1234 148.763C80.8848 148.965 80.7041 149.241 80.5815 149.589C80.4622 149.937 80.4025 150.333 80.4025 150.777C80.4025 151.221 80.4622 151.617 80.5815 151.965C80.7041 152.313 80.8848 152.588 81.1234 152.79C81.3653 152.989 81.6636 153.089 82.0183 153.089ZM89.2619 144.398V154.58H87.144V144.398H89.2619ZM94.4087 154.729C93.6365 154.729 92.9686 154.565 92.4052 154.237C91.845 153.906 91.4125 153.445 91.1076 152.855C90.8027 152.262 90.6502 151.574 90.6502 150.792C90.6502 150.003 90.8027 149.313 91.1076 148.723C91.4125 148.13 91.845 147.67 92.4052 147.341C92.9686 147.01 93.6365 146.844 94.4087 146.844C95.181 146.844 95.8472 147.01 96.4073 147.341C96.9707 147.67 97.4049 148.13 97.7099 148.723C98.0148 149.313 98.1672 150.003 98.1672 150.792C98.1672 151.574 98.0148 152.262 97.7099 152.855C97.4049 153.445 96.9707 153.906 96.4073 154.237C95.8472 154.565 95.181 154.729 94.4087 154.729ZM94.4187 153.089C94.77 153.089 95.0633 152.989 95.2986 152.79C95.534 152.588 95.7113 152.313 95.8306 151.965C95.9532 151.617 96.0145 151.221 96.0145 150.777C96.0145 150.333 95.9532 149.937 95.8306 149.589C95.7113 149.241 95.534 148.965 95.2986 148.763C95.0633 148.561 94.77 148.46 94.4187 148.46C94.064 148.46 93.7657 148.561 93.5238 148.763C93.2851 148.965 93.1045 149.241 92.9819 149.589C92.8626 149.937 92.8029 150.333 92.8029 150.777C92.8029 151.221 92.8626 151.617 92.9819 151.965C93.1045 152.313 93.2851 152.588 93.5238 152.79C93.7657 152.989 94.064 153.089 94.4187 153.089ZM99.5444 154.58V146.944H101.598V148.276H101.677C101.816 147.802 102.05 147.444 102.378 147.202C102.706 146.957 103.084 146.834 103.512 146.834C103.618 146.834 103.732 146.841 103.855 146.854C103.977 146.867 104.085 146.886 104.178 146.909V148.788C104.078 148.758 103.941 148.732 103.765 148.709C103.59 148.685 103.429 148.674 103.283 148.674C102.971 148.674 102.693 148.742 102.448 148.878C102.206 149.01 102.014 149.196 101.871 149.434C101.732 149.673 101.662 149.948 101.662 150.26V154.58H99.5444ZM105.313 154.58V144.398H107.465V148.888H107.6L111.264 144.398H113.844L110.066 148.957L113.889 154.58H111.313L108.524 150.394L107.465 151.687V154.58H105.313ZM115.404 154.58V146.944H117.522V154.58H115.404ZM116.468 145.959C116.153 145.959 115.883 145.855 115.657 145.646C115.435 145.434 115.324 145.18 115.324 144.885C115.324 144.594 115.435 144.344 115.657 144.135C115.883 143.923 116.153 143.817 116.468 143.817C116.783 143.817 117.051 143.923 117.273 144.135C117.498 144.344 117.611 144.594 117.611 144.885C117.611 145.18 117.498 145.434 117.273 145.646C117.051 145.855 116.783 145.959 116.468 145.959ZM123.28 146.944V148.535H118.681V146.944H123.28ZM119.725 145.114H121.843V152.233C121.843 152.429 121.873 152.581 121.933 152.691C121.992 152.797 122.075 152.871 122.181 152.915C122.291 152.958 122.417 152.979 122.559 152.979C122.659 152.979 122.758 152.971 122.857 152.954C122.957 152.934 123.033 152.92 123.086 152.91L123.419 154.486C123.313 154.519 123.164 154.557 122.972 154.6C122.78 154.646 122.546 154.674 122.271 154.684C121.76 154.704 121.313 154.636 120.928 154.481C120.547 154.325 120.251 154.083 120.039 153.755C119.826 153.427 119.722 153.012 119.725 152.512V145.114Z" fill="#333333"/>
<g opacity="0.9">
<path d="M42.25 68.16C44.6027 68.16 46.51 66.2527 46.51 63.9C46.51 61.5473 44.6027 59.64 42.25 59.64C39.8973 59.64 37.99 61.5473 37.99 63.9C37.99 66.2527 39.8973 68.16 42.25 68.16Z" fill="#FFD700"/>
<path d="M148.75 78.81C151.103 78.81 153.01 76.9027 153.01 74.55C153.01 72.1972 151.103 70.29 148.75 70.29C146.397 70.29 144.49 72.1972 144.49 74.55C144.49 76.9027 146.397 78.81 148.75 78.81Z" fill="#FFD700"/>
<path d="M95.5 57.51C97.8527 57.51 99.76 55.6027 99.76 53.25C99.76 50.8973 97.8527 48.99 95.5 48.99C93.1473 48.99 91.24 50.8973 91.24 53.25C91.24 55.6027 93.1473 57.51 95.5 57.51Z" fill="#FFD700"/>
</g>
</g>
<defs>
<clipPath id="clip0_1_36">
<rect width="192" height="192" fill="white"/>
</clipPath>
</defs>
</svg>
